<?xml version="1.0" encoding="UTF-8" standalone="no"?>
<svg
   xmlns:dc="http://purl.org/dc/elements/1.1/"
   xmlns:cc="http://creativecommons.org/ns#"
   xmlns:rdf="http://www.w3.org/1999/02/22-rdf-syntax-ns#"
   xmlns:svg="http://www.w3.org/2000/svg"
   xmlns="http://www.w3.org/2000/svg"
   xmlns:sodipodi="http://sodipodi.sourceforge.net/DTD/sodipodi-0.dtd"
   xmlns:inkscape="http://www.inkscape.org/namespaces/inkscape"
   viewBox="0 0 32 32"
   version="1.1"
   id="svg3905"
   sodipodi:docname="paused-32.svg"
   inkscape:version="0.92.1 r">
  <metadata
     id="metadata3909">
    <rdf:RDF>
      <cc:Work
         rdf:about="">
        <dc:format>image/svg+xml</dc:format>
        <dc:type
           rdf:resource="http://purl.org/dc/dcmitype/StillImage" />
      </cc:Work>
    </rdf:RDF>
  </metadata>
  <sodipodi:namedview
     pagecolor="#ffffff"
     bordercolor="#666666"
     borderopacity="1"
     objecttolerance="10"
     gridtolerance="10"
     guidetolerance="10"
     inkscape:pageopacity="0"
     inkscape:pageshadow="2"
     inkscape:window-width="1334"
     inkscape:window-height="741"
     id="namedview3907"
     showgrid="false"
     inkscape:zoom="16.90625"
     inkscape:cx="16"
     inkscape:cy="16"
     inkscape:window-x="32"
     inkscape:window-y="0"
     inkscape:window-maximized="1"
     inkscape:current-layer="svg3905" />
  <defs
     id="defs3051">
    <style
       type="text/css"
       id="current-color-scheme">
      .ColorScheme-Text {
        color:#4d4d4d;
      }
      </style>
  </defs>
  <path
     style="color:#4d4d4d;fill:currentColor;fill-opacity:1;stroke:none;stroke-width:1.33333325"
     d="M 16,0 A 16.000001,16 0 0 0 0,16.000001 16.000001,16 0 0 0 16,32 16.000001,16 0 0 0 32,16.000001 16.000001,16 0 0 0 16,0 Z m 0,1.3333334 A 14.666667,14.666667 0 0 1 30.666667,16.000001 14.666667,14.666667 0 0 1 16,30.666667 14.666667,14.666667 0 0 1 1.3333334,16.000001 14.666667,14.666667 0 0 1 16,1.3333334 Z M 10.664063,10.66927 v 10.666668 h 2.666665 V 10.66927 Z m 7.999999,0 v 10.666668 h 2.666667 V 10.66927 Z"
     id="path8"
     class="ColorScheme-Text"
     inkscape:connector-curvature="0" />
</svg>
